<svg width="1745" height="765" fill="none" xmlns="http://www.w3.org/2000/svg"><g clip-path="url(#clip0_27946:7)"><path opacity=".2" d="M626.842 159.584l-274.675 475.75-274.675-475.75h549.35z" stroke="#fff"/><path opacity=".2" d="M347.148 357.75L186.5 636 25.852 357.75h321.296zM1821.26 509.5l-278.25 160.648V348.852L1821.26 509.5zm-352.35-254.364l174.34-100.656v201.313l-174.34-100.657z" stroke="#fff"/><path d="M77 164a5 5 0 100-10 5 5 0 000 10zM26 363a5 5 0 100-10 5 5 0 000 10zm161 278a5 5 0 10-.001-10.001A5 5 0 00187 641zm165-1a5 5 0 10-.001-10.001A5 5 0 00352 640zm275-476a5 5 0 10-.001-10.001A5 5 0 00627 164z" fill="#fff"/></g><defs><clipPath id="clip0_27946:7"><path fill="#fff" d="M0 0h1745v765H0z"/></clipPath></defs></svg>