<svg xmlns="http://www.w3.org/2000/svg" xmlns:xlink="http://www.w3.org/1999/xlink"><symbol id="icon-arrow"><path d="M1 8.5l4-4-4-4" stroke="#fff" stroke-linejoin="round"/></symbol><symbol id="icon-facebook"><path fill-rule="evenodd" clip-rule="evenodd" d="M27 13.5C27 6.045 20.956 0 13.5 0S0 6.045 0 13.5C0 20.956 6.044 27 13.5 27S27 20.956 27 13.5zM16.884 9.294h-1.74c-.469 0-.798.397-.798.891v.775h2.485l-.402 2.517h-2.083v6.747h-2.543v-6.747h-1.688V10.96h1.688V9.677h.004c.045-1.463.553-2.856 3.031-2.944v-.01h2.046v2.571z" fill="#CDCDCD"/></symbol><symbol id="icon-mail-desktop"><path d="M16.68 0H2.323C1.042 0 0 1.009 0 2.25v9.5C0 12.991 1.042 14 2.323 14h14.354C17.958 14 19 12.991 19 11.75V2.253C19.004 1.013 17.962 0 16.68 0zm1.262 11.75c0 .674-.566 1.222-1.262 1.222H2.323c-.695 0-1.262-.548-1.262-1.222V2.253c0-.673.567-1.221 1.262-1.221h14.354c.695 0 1.262.548 1.262 1.221v9.497h.003z" fill="#00B2FF"/><path d="M11.983 6.882l4.646-4.035a.505.505 0 00.04-.727.546.546 0 00-.751-.038L9.51 7.651 8.26 6.57c-.004-.004-.008-.008-.008-.012a.78.78 0 00-.087-.072L3.078 2.078a.542.542 0 00-.75.042.502.502 0 00.043.727l4.702 4.07L2.39 11.16a.504.504 0 00-.023.727.541.541 0 00.75.027l4.754-4.305L9.16 8.724a.54.54 0 00.708-.004l1.325-1.15 4.725 4.348c.102.095.236.14.366.14a.537.537 0 00.385-.16.504.504 0 00-.02-.726l-4.666-4.29z" fill="#00B2FF"/></symbol><symbol id="icon-mail-mobile"><path d="M22.24 0H3.099C1.389 0 0 1.345 0 3v12.667c0 1.655 1.39 3 3.098 3h19.137c1.71 0 3.098-1.345 3.098-3V3.005C25.34 1.35 23.95 0 22.241 0zm1.683 15.667c0 .899-.754 1.63-1.682 1.63H3.098c-.928 0-1.683-.732-1.683-1.63V3.005c0-.899.755-1.63 1.683-1.63h19.137c.928 0 1.683.731 1.683 1.63v12.662h.005z" fill="#00B2FF"/><path d="M15.977 9.176l6.195-5.38a.673.673 0 00.053-.97.728.728 0 00-1.001-.05l-8.544 7.425-1.667-1.441c-.005-.005-.01-.01-.01-.015a1.043 1.043 0 00-.116-.097L4.104 2.771a.723.723 0 00-1 .056.67.67 0 00.057.97L9.43 9.221 3.187 14.88a.673.673 0 00-.031.969.722.722 0 001.001.036l6.337-5.74 1.72 1.486a.72.72 0 00.943-.005l1.766-1.532 6.3 5.795a.716.716 0 00.488.188.718.718 0 00.514-.213.672.672 0 00-.026-.97l-6.222-5.719z" fill="#00B2FF"/></symbol><symbol id="icon-ok"><path d="M13.851 10.957c1.016 0 1.806-.836 1.787-1.746.019-.91-.752-1.764-1.768-1.764-.978 0-1.787.78-1.787 1.746 0 .965.79 1.764 1.768 1.764z" fill="#CDCDCD"/><path d="M13.701 0C6.441 0 .535 5.831.535 13c0 7.187 5.906 13 13.166 13 7.279 0 13.166-5.831 13.166-13C26.885 5.83 20.98 0 13.7 0zm.188 4.921c2.37 0 4.326 1.932 4.307 4.29 0 2.377-1.975 4.29-4.382 4.253-2.37-.037-4.27-1.95-4.27-4.271 0-2.359 1.938-4.272 4.345-4.272zm4.834 10.029c0 .037-.019.056-.019.093a1.213 1.213 0 01-.564.873c-.207.13-.433.26-.659.371a8.55 8.55 0 01-1.786.65c-.075.019-.075.019-.02.074l1.035 1.022 1.317 1.3c.62.613.451 1.634-.339 2.006-.131.074-.282.092-.432.13h-.245c-.019 0-.037 0-.037-.02-.301-.036-.546-.185-.771-.39l-2.276-2.246c-.057-.056-.057-.056-.113 0l-2.295 2.265c-.131.13-.263.223-.432.298-.113.055-.245.074-.358.092h-.244c-.038 0-.057-.018-.094-.018-.508-.093-.847-.372-.997-.854-.15-.483-.038-.91.32-1.263l.94-.929 1.392-1.374c.056-.056.056-.056-.019-.074-.019 0-.056-.019-.075-.019a8.182 8.182 0 01-2.351-.984c-.433-.279-.64-.687-.583-1.189.094-.928 1.147-1.43 1.937-.928.15.092.282.167.451.241a5.413 5.413 0 002.746.557c.47-.018.94-.111 1.411-.26.451-.148.846-.353 1.26-.575.677-.39 1.561-.075 1.825.65.037.11.056.204.075.315v.186z" fill="#CDCDCD"/></symbol><symbol id="icon-phone-desktop"><path d="M14.233 11.15c-.369-.383-.814-.588-1.286-.588-.468 0-.917.2-1.3.585l-1.203 1.196c-.099-.053-.198-.102-.293-.152a4.832 4.832 0 01-.377-.201c-1.126-.714-2.15-1.645-3.13-2.85-.476-.6-.796-1.105-1.028-1.618.312-.285.601-.581.883-.866l.32-.323c.798-.798.798-1.831 0-2.629l-1.04-1.037c-.117-.118-.24-.24-.353-.36A17.952 17.952 0 004.71 1.6c-.369-.365-.81-.559-1.274-.559-.464 0-.913.194-1.294.559l-.007.007L.84 2.91a2.778 2.778 0 00-.825 1.767c-.092 1.11.236 2.142.487 2.819.616 1.66 1.537 3.198 2.91 4.847a17.9 17.9 0 005.962 4.662c.875.414 2.043.904 3.348.987.08.004.163.008.24.008.878 0 1.617-.315 2.195-.942.004-.008.011-.012.015-.02.198-.239.426-.455.666-.687.163-.156.33-.319.494-.49.377-.391.575-.847.575-1.314 0-.471-.202-.924-.586-1.303l-2.089-2.094zm1.362 4c-.004 0-.004.005 0 0-.148.16-.3.305-.464.464a9.977 9.977 0 00-.734.76c-.384.41-.837.604-1.43.604-.058 0-.119 0-.176-.004-1.13-.072-2.18-.513-2.967-.889a16.898 16.898 0 01-5.616-4.391C2.911 10.132 2.043 8.689 1.47 7.139c-.354-.946-.483-1.683-.426-2.379.038-.444.21-.813.525-1.128l1.297-1.295c.187-.175.385-.27.579-.27.24 0 .433.144.555.266l.011.011c.233.217.453.44.685.68.118.122.24.243.362.369L6.095 4.43c.404.403.404.775 0 1.178-.11.11-.217.22-.327.326-.32.327-.624.63-.955.927-.007.008-.015.012-.019.02-.327.326-.266.645-.198.862l.012.034c.27.653.65 1.269 1.229 2.002l.003.004c1.05 1.291 2.158 2.298 3.379 3.07.156.098.316.178.468.254.137.068.266.133.377.201.015.008.03.02.045.027.13.064.251.095.377.095.316 0 .513-.198.578-.262l1.301-1.3c.13-.129.335-.285.575-.285.236 0 .43.149.548.278l.007.007 2.097 2.094c.391.387.391.786.003 1.189zM9.728 4.282a4.827 4.827 0 012.626 1.36 4.84 4.84 0 011.362 2.621.51.51 0 00.506.426c.03 0 .057-.004.087-.008a.513.513 0 00.422-.593 5.856 5.856 0 00-1.647-3.172 5.871 5.871 0 00-3.177-1.645.516.516 0 00-.593.418.507.507 0 00.414.593zm8.264 3.658a9.635 9.635 0 00-2.713-5.223 9.659 9.659 0 00-5.23-2.71.512.512 0 10-.168 1.011 8.65 8.65 0 014.676 2.42 8.601 8.601 0 012.423 4.67.51.51 0 00.506.425c.03 0 .057-.004.088-.008a.503.503 0 00.418-.585z" fill="#00B2FF"/></symbol><symbol id="icon-phone-mobile"><path d="M19.645 14.867c-.492-.512-1.086-.785-1.715-.785-.624 0-1.222.268-1.735.78l-1.603 1.596c-.132-.071-.264-.137-.39-.203a6.451 6.451 0 01-.503-.268c-1.501-.953-2.866-2.194-4.174-3.8-.635-.8-1.06-1.473-1.37-2.157.416-.38.801-.775 1.177-1.155.142-.142.284-.289.426-.43 1.065-1.064 1.065-2.442 0-3.506L8.373 3.556c-.157-.157-.32-.319-.472-.481a23.938 23.938 0 00-.953-.942c-.492-.486-1.08-.745-1.7-.745-.619 0-1.217.259-1.724.745l-.01.01L1.788 3.88a3.704 3.704 0 00-1.1 2.356c-.122 1.479.314 2.857.65 3.758.821 2.214 2.049 4.265 3.88 6.464 2.222 2.649 4.895 4.74 7.949 6.215 1.167.552 2.724 1.205 4.464 1.317.106.005.218.01.32.01 1.171 0 2.155-.42 2.926-1.256.005-.01.016-.015.02-.026.264-.319.569-.607.888-.916.218-.208.442-.426.66-.654.502-.522.766-1.13.766-1.752 0-.629-.269-1.231-.781-1.738l-2.785-2.79zm1.816 5.334c-.005 0-.005.005 0 0-.198.213-.401.405-.62.618-.329.314-.664.643-.978 1.013-.512.547-1.116.805-1.907.805-.077 0-.158 0-.234-.005-1.507-.096-2.907-.684-3.957-1.185-2.87-1.388-5.392-3.358-7.487-5.855-1.73-2.082-2.886-4.007-3.652-6.074-.472-1.261-.645-2.244-.568-3.17a2.32 2.32 0 01.7-1.505l1.73-1.728c.248-.233.512-.36.77-.36.32 0 .579.193.741.355l.015.016c.31.288.604.587.913.906.158.162.32.324.482.492l1.385 1.382c.538.537.538 1.034 0 1.57-.147.148-.29.295-.436.436a26.33 26.33 0 01-1.273 1.236c-.01.01-.02.016-.026.026-.436.435-.355.86-.264 1.15l.016.045c.36.871.867 1.692 1.638 2.67l.005.005c1.4 1.722 2.877 3.064 4.505 4.092.208.132.42.239.624.34.182.091.355.177.502.268.02.01.04.026.06.036.173.086.336.126.503.126.421 0 .685-.263.771-.35l1.735-1.732c.172-.172.446-.38.766-.38.314 0 .573.198.73.37l.01.01 2.796 2.792c.522.516.522 1.048.005 1.585zM13.638 5.709a6.436 6.436 0 013.5 1.813 6.453 6.453 0 011.817 3.495.68.68 0 00.674.568c.04 0 .076-.005.117-.01a.685.685 0 00.563-.79 7.81 7.81 0 00-2.196-4.23 7.828 7.828 0 00-4.236-2.193.688.688 0 00-.792.557c-.066.37.178.73.553.79zm11.018 4.878a12.847 12.847 0 00-3.616-6.965A12.878 12.878 0 0014.065.01a.682.682 0 10-.224 1.348c2.364.4 4.52 1.52 6.235 3.226a11.47 11.47 0 013.231 6.226.68.68 0 00.675.567c.04 0 .076-.005.116-.01a.671.671 0 00.558-.78z" fill="#00B2FF"/></symbol><symbol id="icon-vk"><path d="M19.475 15.127c-1.109-1.024-1.188-1.024-.238-2.206 1.188-1.497 2.773-3.388 1.347-3.388H17.97c-.475 0-.554.316-.713.71-.633 1.496-1.9 3.466-2.376 3.15-.475-.314-.237-1.496-.237-3.387a.61.61 0 00-.159-.63c-.158-.158-.396-.315-.633-.315-.396-.079-.792-.158-1.188-.158-1.505 0-2.535.63-1.98.71 1.03.157.95 2.363.712 3.308-.396 1.655-1.98-1.26-2.693-2.757-.079-.394-.396-.63-.792-.63H5.852c-.317 0-.554.078-.554.315 0 .393 1.98 4.254 3.801 6.224 1.822 1.89 3.644 1.733 4.911 1.733a.607.607 0 00.396-.158.6.6 0 00.158-.394c0-1.26.476-1.89 1.347-1.024.95.945 1.188 1.576 2.376 1.576h2.138c.555 0 .713-.158.713-.394.08-.552-.871-1.576-1.663-2.285zM13.852.001c7.366.157 13.226 6.066 13.147 13.235-.079 7.17-6.178 12.842-13.543 12.763C6.01 25.92.07 20.17.07 13 .15 5.753 6.327-.077 13.852.002z" fill="#CDCDCD"/></symbol></svg>